HIERARCHY
ROOT Hips
{
	OFFSET 0.000000 0.000000 0.000000
	CHANNELS 6 Xposition Yposition Zposition Xrotation Yrotation Zrotation
	JOINT LeftUpLeg_virtual
	{
		OFFSET 0.000000 0.000000 0.000000
		CHANNELS 3 Xrotation Yrotation Zrotation
		JOINT LeftUpLeg
		{
			OFFSET 10.205400 -3.823500 0.155100
			CHANNELS 3 Xrotation Yrotation Zrotation
			JOINT LeftLeg
			{
				OFFSET 0.708757 -12.982077 0.567790
				CHANNELS 3 Xrotation Yrotation Zrotation
				JOINT LeftFoot
				{
					OFFSET -0.708756 -10.717838 -2.184338
					CHANNELS 3 Xrotation Yrotation Zrotation
					JOINT LeftToeBase
					{
						OFFSET 0.108149 -7.191104 7.560241
						CHANNELS 3 Xrotation Yrotation Zrotation
						JOINT LeftToe_End
						{
							OFFSET 0.070230 0.081724 4.490308
							CHANNELS 3 Xrotation Yrotation Zrotation
							End Site
							{
								OFFSET 0 0 0
							}
						}
					}
				}
			}
		}
	}
	JOINT RightUpLeg_virtual
	{
		OFFSET 0.000000 0.000000 0.000000
		CHANNELS 3 Xrotation Yrotation Zrotation
		JOINT RightUpLeg
		{
			OFFSET -10.205400 -3.823500 0.005500
			CHANNELS 3 Xrotation Yrotation Zrotation
			JOINT RightLeg
			{
				OFFSET -0.708756 -12.982134 0.610632
				CHANNELS 3 Xrotation Yrotation Zrotation
				JOINT RightFoot
				{
					OFFSET 0.708754 -10.717769 -1.945823
					CHANNELS 3 Xrotation Yrotation Zrotation
					JOINT RightToeBase
					{
						OFFSET -0.108140 -7.191069 7.372968
						CHANNELS 3 Xrotation Yrotation Zrotation
						JOINT RightToe_End
						{
							OFFSET -0.070227 0.081735 4.479403
							CHANNELS 3 Xrotation Yrotation Zrotation
							End Site
							{
								OFFSET 0 0 0
							}
						}
					}
				}
			}
		}
	}
	JOINT Spine_virtual
	{
		OFFSET 0.000000 0.000000 0.000000
		CHANNELS 3 Xrotation Yrotation Zrotation
		JOINT Spine
		{
			OFFSET 0.000000 6.876099 0.125700
			CHANNELS 3 Xrotation Yrotation Zrotation
			JOINT Spine1
			{
				OFFSET 0.000000 5.730043 0.104720
				CHANNELS 3 Xrotation Yrotation Zrotation
				JOINT Spine1_split
				{
					OFFSET 0.000000 5.730043 0.104720
					CHANNELS 3 Xrotation Yrotation Zrotation
					JOINT Spine2
					{
						OFFSET 0.000000 5.730043 0.104720
						CHANNELS 3 Xrotation Yrotation Zrotation
						JOINT Neck_virtual
						{
							OFFSET 0.000000 0.000000 0.000000
							CHANNELS 3 Xrotation Yrotation Zrotation
							JOINT Neck
							{
								OFFSET 0.000000 10.314075 0.188496
								CHANNELS 3 Xrotation Yrotation Zrotation
								JOINT Head
								{
									OFFSET 0.000000 7.643700 -2.377400
									CHANNELS 3 Xrotation Yrotation Zrotation
									JOINT HeadTop_End
									{
										OFFSET 0.000000 43.788605 -13.619600
										CHANNELS 3 Xrotation Yrotation Zrotation
										End Site
										{
											OFFSET 0 0 0
										}
									}
								}
							}
						}
						JOINT LeftShoulder_virtual
						{
							OFFSET 0.000000 0.000000 0.000000
							CHANNELS 3 Xrotation Yrotation Zrotation
							JOINT LeftShoulder
							{
								OFFSET 2.196100 4.412489 0.087492
								CHANNELS 3 Xrotation Yrotation Zrotation
								JOINT LeftShoulder_split
								{
									OFFSET 2.196100 4.412489 0.087492
									CHANNELS 3 Xrotation Yrotation Zrotation
									JOINT LeftArm
									{
										OFFSET 8.771219 -2.981674 -0.026999
										CHANNELS 3 Xrotation Yrotation Zrotation
										JOINT LeftForeArm
										{
											OFFSET 8.512804 0.000000 -0.000000
											CHANNELS 3 Xrotation Yrotation Zrotation
											JOINT LeftHand
											{
												OFFSET 18.484802 0.000000 -0.000000
												CHANNELS 3 Xrotation Yrotation Zrotation
												End Site
												{
													OFFSET 0 0 0
												}
											}
										}
									}
								}
							}
						}
						JOINT RightShoulder_virtual
						{
							OFFSET 0.000000 0.000000 0.000000
							CHANNELS 3 Xrotation Yrotation Zrotation
							JOINT RightShoulder
							{
								OFFSET -2.196100 4.412496 0.070690
								CHANNELS 3 Xrotation Yrotation Zrotation
								JOINT RightShoulder_split
								{
									OFFSET -2.196100 4.412496 0.070690
									CHANNELS 3 Xrotation Yrotation Zrotation
									JOINT RightArm
									{
										OFFSET -8.771282 -2.981682 -0.094208
										CHANNELS 3 Xrotation Yrotation Zrotation
										JOINT RightForeArm
										{
											OFFSET -8.494598 0.000000 0.000000
											CHANNELS 3 Xrotation Yrotation Zrotation
											JOINT RightHand
											{
												OFFSET -18.483803 0.000000 0.000001
												CHANNELS 3 Xrotation Yrotation Zrotation
												End Site
												{
													OFFSET 0 0 0
												}
											}
										}
									}
								}
							}
						}
					}
				}
			}
		}
	}
}
MOTION
Frames: 8
Frame Time: 0.03333333
4.192327 29.247753 32.407642 0.000000 0.000000 0.000000 163.440539 50.748227 -175.176184 -55.475278 1.219999 16.147715 34.684681 -33.939907 5.638480 1.079703 2.108497 -18.320818 2.513008 2.186555 -8.952114 0.000000 0.000000 0.000000 165.842621 45.342248 -179.197034 -11.782503 -30.845995 -23.995018 33.217945 -2.626747 6.504974 -24.085153 -9.212582 19.620615 5.562466 -1.802725 -1.241590 0.000000 0.000000 0.000000 165.430870 50.321408 -177.141147 16.736074 4.102524 -2.743536 10.975842 13.699836 -12.185283 0.571834 -6.167217 1.411403 0.000000 0.000000 0.000000 3.865998 13.057966 -10.318503 5.577807 4.174168 6.029677 -3.729299 9.595652 -7.693385 0.000000 0.000000 0.000000 2.784667 13.696401 -11.161919 0.921833 19.675729 -5.322032 -5.972528 -1.880059 0.012115 21.654201 33.757479 -67.218453 -56.837884 -27.462958 -29.389583 0.000000 0.000000 0.000000 2.467108 12.883903 -11.113128 5.789848 14.289694 2.081695 -7.819896 -2.782462 0.308115 -55.838627 32.020074 69.586521 35.050335 30.295208 0.131302 0.000000 0.000000 0.000000 
4.003202 29.308105 31.368740 0.000000 0.000000 0.000000 162.419412 55.574097 -174.497468 -53.289928 -0.195445 19.071399 37.907099 -33.167423 5.664382 -2.129008 2.729188 -17.811047 2.858871 2.026760 -9.318947 0.000000 0.000000 0.000000 164.921666 49.732206 -178.386264 -16.108661 -28.819771 -24.346389 33.040835 -0.624219 5.347769 -18.894371 -7.090341 19.617977 3.025586 -1.007474 -1.369782 0.000000 0.000000 0.000000 164.335007 55.087371 -176.538001 16.448342 4.406135 -1.799627 10.582314 13.086227 -12.301645 0.282469 -6.187602 1.483436 0.000000 0.000000 0.000000 3.638922 12.397170 -10.401076 4.403654 4.580729 5.243956 -2.634306 8.975336 -7.393428 0.000000 0.000000 0.000000 2.406394 13.060134 -11.247808 1.379917 18.074473 -8.142697 -6.131407 -1.465865 0.980444 16.271433 31.059807 -60.188877 -51.522408 -29.059412 -28.864332 0.000000 0.000000 0.000000 2.097450 12.207915 -11.151860 5.618842 13.532309 2.474504 -9.457931 -2.286083 0.467178 -48.342518 28.934491 66.851323 34.989966 37.700944 -0.527581 0.000000 0.000000 0.000000 
3.733857 29.226627 30.202011 0.000000 0.000000 0.000000 161.310422 60.445296 -173.687162 -50.884431 -1.689946 21.686576 42.208038 -31.750845 5.980281 -5.912491 3.620039 -16.936202 3.145235 1.977410 -9.306962 0.000000 0.000000 0.000000 163.833822 54.307288 -177.268216 -20.292589 -25.879276 -24.598967 33.120496 1.755325 3.927949 -13.933125 -5.046526 21.777443 -0.475988 -0.699463 -0.896080 0.000000 0.000000 0.000000 163.267175 60.236162 -176.008934 16.166202 4.493847 -1.173840 10.020276 12.257895 -12.388004 0.144292 -5.805885 1.464957 0.000000 0.000000 0.000000 3.255194 11.637846 -10.488680 3.169855 4.864417 5.277265 -1.945350 8.251669 -6.540208 0.000000 0.000000 0.000000 1.798268 12.316374 -11.273815 1.569861 15.625154 -10.578705 -6.442264 -1.148709 1.665515 10.253015 27.730293 -51.472685 -45.329903 -30.808265 -27.844830 0.000000 0.000000 0.000000 1.406785 11.392337 -11.106687 5.327673 12.146929 2.806533 -11.123538 -1.664874 -0.076054 -40.699595 24.664271 62.628853 34.689978 48.232986 -0.974123 0.000000 0.000000 0.000000 
3.406521 29.044247 28.885242 0.000000 0.000000 0.000000 159.526677 65.148496 -171.966050 -48.363610 -2.992791 23.605456 46.321516 -29.440779 6.207918 -10.309602 4.711925 -15.391570 2.856721 2.080420 -8.815348 0.000000 0.000000 0.000000 162.257291 59.084927 -175.456590 -23.779285 -22.256853 -24.453561 33.700420 4.102230 2.306844 -11.031830 -3.532281 24.642701 -3.196474 -0.908775 0.285874 0.000000 0.000000 0.000000 161.836059 65.503836 -174.970786 15.905345 4.250887 -0.852367 9.244886 11.179563 -12.413187 0.260795 -4.929626 1.625038 0.000000 0.000000 0.000000 2.718062 10.727346 -10.566096 2.040917 4.950154 5.855532 -2.204240 7.254481 -5.074223 0.000000 0.000000 0.000000 0.901882 11.423995 -11.219394 1.432875 12.646088 -12.035180 -6.625577 -0.793205 2.090686 3.653110 23.428034 -41.993878 -38.115953 -32.686352 -25.884675 0.000000 0.000000 0.000000 0.415050 10.415726 -10.989194 4.955346 10.265047 2.996098 -12.233857 -0.491530 -1.074231 -34.132532 19.180018 57.640629 33.677672 61.129367 -0.754470 0.000000 0.000000 0.000000 
3.107519 28.902010 27.451557 0.000000 0.000000 0.000000 155.814606 69.770369 -168.019676 -45.905568 -3.960247 24.791437 49.327455 -26.522326 6.066199 -14.778146 5.453456 -13.501553 1.822704 2.292083 -7.997321 0.000000 0.000000 0.000000 159.490682 64.312658 -172.295552 -26.200134 -18.347862 -23.874031 34.893831 5.649652 0.750666 -11.429466 -3.272676 25.902849 -2.668699 -1.469116 2.354571 0.000000 0.000000 0.000000 159.131031 70.657433 -172.332462 15.631001 3.660655 -0.715997 8.287433 9.871292 -12.330200 0.399592 -4.278486 1.688359 0.000000 0.000000 0.000000 1.993259 9.607187 -10.588140 1.203213 4.907138 6.598374 -3.530979 5.855291 -3.123535 0.000000 0.000000 0.000000 -0.181243 10.311654 -11.056729 1.048349 9.491397 -12.319149 -6.906733 -0.617592 2.022373 -2.651130 17.758774 -32.976874 -29.256965 -34.123079 -22.155662 0.000000 0.000000 0.000000 -0.773818 9.211278 -10.819279 4.498816 8.032912 3.011382 -12.510572 0.785773 -2.379385 -29.217391 13.178038 52.663948 30.377973 74.938240 1.592683 0.000000 0.000000 0.000000 
2.833999 28.910894 25.898438 0.000000 0.000000 0.000000 148.314088 74.258438 -160.119701 -43.752983 -4.606330 25.247979 51.075875 -23.212784 5.503742 -18.478174 5.552975 -11.702595 0.496924 2.515943 -7.120828 0.000000 0.000000 0.000000 154.509247 69.680722 -166.897107 -28.032843 -14.617643 -23.146714 35.968756 5.836064 -0.485467 -14.458228 -4.445577 24.731215 1.347737 -2.012620 5.109096 0.000000 0.000000 0.000000 153.157580 75.626778 -166.172328 15.255513 2.761587 -0.642573 7.187594 8.339121 -12.071457 0.593958 -3.452269 1.373539 0.000000 0.000000 0.000000 1.095899 8.274346 -10.510354 0.857981 4.875168 7.098488 -5.698302 4.083260 -0.987706 0.000000 0.000000 0.000000 -1.320103 8.943815 -10.776953 0.563184 6.285952 -11.547244 -6.851755 -0.675852 1.485048 -7.807611 10.529803 -25.728496 -18.942351 -34.056949 -16.585313 0.000000 0.000000 0.000000 -1.935596 7.768073 -10.579316 4.069775 5.720035 2.871784 -12.151178 1.096935 -3.628397 -25.688210 7.701484 48.175978 -7.408442 87.680914 38.316951 0.000000 0.000000 0.000000 
2.581192 29.089315 24.128181 0.000000 0.000000 0.000000 133.284475 78.325666 -144.594627 -42.102765 -4.867994 25.013864 52.067560 -19.540025 4.635805 -21.334883 5.146755 -9.675704 -0.191951 2.631106 -6.613449 0.000000 0.000000 0.000000 145.034122 75.004479 -157.031513 -29.267893 -11.292598 -22.354171 36.151573 4.970207 -1.230366 -18.041697 -6.178488 22.389736 5.773136 -2.415519 7.876385 0.000000 0.000000 0.000000 139.408833 80.064038 -152.035216 14.868774 1.714432 -0.525778 6.099306 6.713220 -11.615331 0.729164 -2.667118 0.909202 0.000000 0.000000 0.000000 0.135640 6.805868 -10.246949 1.126794 4.988802 7.066191 -8.219447 2.236974 0.952286 0.000000 0.000000 0.000000 -2.319288 7.350417 -10.353038 0.110805 3.384764 -10.179138 -6.219249 -0.859340 0.848588 -11.844851 1.907974 -21.042920 -8.395459 -32.249390 -10.218391 0.000000 0.000000 0.000000 -2.929267 6.206893 -10.199062 3.701428 3.737991 2.722009 -10.948781 0.248869 -4.448492 -23.151532 3.470299 44.577178 -135.808244 80.447143 165.522449 0.000000 0.000000 0.000000 
2.363251 29.457666 22.177538 0.000000 0.000000 0.000000 103.725090 81.002499 -114.483273 -40.650325 -4.333111 24.258742 52.505775 -15.386900 3.473590 -23.640026 4.580370 -7.553059 0.208095 2.657612 -6.601021 0.000000 0.000000 0.000000 125.007939 79.623108 -136.602677 -29.618176 -8.773198 -21.604170 35.156650 3.545978 -1.567526 -19.956636 -7.708884 20.829958 7.492594 -2.984490 10.095451 0.000000 0.000000 0.000000 106.273447 83.139043 -118.440548 14.471533 0.714708 -0.319640 5.177855 5.137639 -10.951205 0.987996 -2.178978 0.403362 0.000000 0.000000 0.000000 -0.806186 5.343001 -9.749996 2.013749 5.276060 6.484962 -10.502059 0.665631 2.468716 0.000000 0.000000 0.000000 -3.063510 5.684709 -9.760620 -0.282426 0.984137 -8.511694 -5.427022 -0.763517 -0.015822 -15.234672 -7.234724 -19.081505 0.624103 -29.519063 -4.447759 0.000000 0.000000 0.000000 -3.660946 4.663582 -9.639887 3.445606 2.464607 2.644525 -9.661036 -1.522083 -4.719697 -21.362250 0.909242 41.896742 -141.311341 72.438650 169.710380 0.000000 0.000000 0.000000 
